<svg width="120" height="122" viewBox="0 0 120 122" fill="none" xmlns="http://www.w3.org/2000/svg">
<g opacity="0.1">
<path fill-rule="evenodd" clip-rule="evenodd" d="M31.3047 102.486C31.3064 110.853 31.3357 115.25 31.8269 118.978C35.4331 146.342 56.988 167.876 84.3802 171.478C88.3468 172 93.0718 172 102.522 172H108.783C118.233 172 122.957 172 126.924 171.478C154.316 167.876 175.871 146.342 179.477 118.978C180 115.015 180 110.295 180 100.855C180 91.4141 180 86.6941 179.477 82.7312C175.871 55.3667 154.316 33.8335 126.924 30.231C122.957 29.7092 118.233 29.7092 108.783 29.7092H103.871C104.87 34.4862 104.87 40.5931 104.87 51.5999C104.87 52.6892 104.87 53.7307 104.868 54.7274H108.783C119.029 54.7274 121.726 54.7813 123.655 55.035C139.81 57.1598 152.521 69.8588 154.648 85.9966C154.902 87.9239 154.956 90.6189 154.956 100.855C154.956 111.09 154.902 113.785 154.648 115.712C152.521 131.85 139.81 144.549 123.655 146.674C121.726 146.928 119.029 146.982 108.783 146.982H102.522C92.2758 146.982 89.5781 146.928 87.6489 146.674C71.4948 144.549 58.7826 131.85 56.656 115.712C56.4227 113.941 56.3582 111.522 56.3493 103.199C55.3512 103.2 54.3084 103.2 53.2177 103.2H51.6524C41.7989 103.2 35.8684 103.2 31.3047 102.486Z" fill="white"/>
<path fill-rule="evenodd" clip-rule="evenodd" d="M1.41483 27.9991C-8.55193e-08 33.0572 0 39.238 0 51.5999C0 63.9618 -8.55193e-08 70.1426 1.41483 75.2008C5.02324 88.1007 15.1141 98.1816 28.0273 101.786C29.0586 102.074 30.1364 102.303 31.3038 102.486C31.3035 101.958 31.3035 101.415 31.3035 100.854C31.3035 91.414 31.3035 86.6938 31.8258 82.7309C35.4319 55.3664 56.9868 33.8335 84.379 30.2306C88.3458 29.7089 93.0706 29.7089 102.521 29.7089H103.87C103.747 29.1212 103.609 28.5533 103.454 27.9991C99.8459 15.0988 89.7551 5.01817 76.8418 1.41341C71.7785 0 65.5915 0 53.2171 0H51.6518C39.2777 0 33.0904 0 28.0273 1.41341C15.1141 5.01817 5.02324 15.0988 1.41483 27.9991ZM104.868 54.7271H102.521C92.2746 54.7271 89.5769 54.781 87.6477 55.0347C71.4936 57.1595 58.7817 69.8585 56.6548 85.9966C56.4009 87.9236 56.3469 90.6188 56.3469 100.854C56.3469 101.684 56.3472 102.464 56.3481 103.199C66.6733 103.189 72.2247 103.075 76.8418 101.786C89.7551 98.1816 99.8459 88.1007 103.454 75.2008C104.744 70.5883 104.858 65.0422 104.868 54.7271Z" fill="white"/>
</g>
</svg>
