<svg width="63" height="60" viewBox="0 0 63 60" fill="none" xmlns="http://www.w3.org/2000/svg">
<path fill-rule="evenodd" clip-rule="evenodd" d="M11.1816 35.7509C11.1822 38.6694 11.1924 40.2035 11.3636 41.5038C12.6203 51.0496 20.1319 58.5612 29.6777 59.8179C31.06 59.9999 32.7066 59.9999 35.9998 59.9999H38.1816C41.4748 59.9999 43.1213 59.9999 44.5037 59.8179C54.0495 58.5612 61.5611 51.0496 62.8178 41.5038C62.9998 40.1214 62.9998 38.4749 62.9998 35.1817C62.9998 31.8885 62.9998 30.242 62.8178 28.8596C61.5611 19.3138 54.0495 11.8022 44.5037 10.5455C43.1213 10.3635 41.4748 10.3635 38.1816 10.3635H36.4699C36.818 12.0299 36.818 14.1602 36.818 17.9998C36.818 18.3798 36.818 18.7431 36.8176 19.0908H38.1816C41.7522 19.0908 42.6923 19.1096 43.3646 19.1981C48.9941 19.9393 53.424 24.3692 54.1652 29.9987C54.2537 30.671 54.2725 31.6111 54.2725 35.1817C54.2725 38.7523 54.2537 39.6924 54.1652 40.3647C53.424 45.9942 48.9941 50.4241 43.3646 51.1653C42.6923 51.2538 41.7522 51.2726 38.1816 51.2726H35.9998C32.4292 51.2726 31.4891 51.2538 30.8168 51.1653C25.1873 50.4241 20.7573 45.9942 20.0162 40.3647C19.9349 39.7469 19.9124 38.903 19.9093 35.9996C19.5615 35.9999 19.1981 35.9999 18.818 35.9999H18.2725C14.8387 35.9999 12.772 35.9999 11.1816 35.7509Z" fill="#01BF93"/>
<path fill-rule="evenodd" clip-rule="evenodd" d="M0.766 9.76714C0.272949 11.5316 0.272949 13.6877 0.272949 18C0.272949 22.3123 0.272949 24.4684 0.766 26.2329C2.02348 30.7329 5.54 34.2495 10.0401 35.507C10.3995 35.6074 10.7751 35.6873 11.1819 35.751C11.1818 35.5669 11.1818 35.3773 11.1818 35.1818C11.1818 31.8887 11.1818 30.2421 11.3638 28.8597C12.6205 19.3139 20.1321 11.8024 29.6779 10.5456C31.0603 10.3636 32.7068 10.3636 36 10.3636H36.4703C36.4275 10.1586 36.3794 9.96049 36.3254 9.76714C35.0679 5.26705 31.5514 1.75053 27.0513 0.49305C25.2868 0 23.1307 0 18.8184 0H18.2729C13.9607 0 11.8045 0 10.0401 0.49305C5.54 1.75053 2.02348 5.26705 0.766 9.76714ZM36.8181 19.0909H36C32.4294 19.0909 31.4893 19.1097 30.817 19.1982C25.1875 19.9394 20.7576 24.3693 20.0164 29.9989C19.9279 30.6711 19.9091 31.6113 19.9091 35.1818C19.9091 35.4713 19.9092 35.7435 19.9095 35.9997C23.5077 35.9962 25.4423 35.9566 27.0513 35.507C31.5514 34.2495 35.0679 30.7329 36.3254 26.2329C36.775 24.6239 36.8146 22.6892 36.8181 19.0909Z" fill="#1A1B7B"/>
</svg>
