<svg width="120" height="112" viewBox="0 0 120 112" fill="none" xmlns="http://www.w3.org/2000/svg">
<g opacity="0.1">
<path fill-rule="evenodd" clip-rule="evenodd" d="M-28.6953 42.4862C-28.6936 50.8526 -28.6643 55.2503 -28.1731 58.9778C-24.5669 86.3424 -3.01197 107.876 24.3802 111.478C28.3468 112 33.0718 112 42.5218 112H48.7826C58.2326 112 62.9573 112 66.9241 111.478C94.3163 107.876 115.871 86.3424 119.477 58.9778C120 55.015 120 50.295 120 40.8545C120 31.4141 120 26.6941 119.477 22.7312C115.871 -4.63331 94.3163 -26.1665 66.9241 -29.769C62.9573 -30.2908 58.2326 -30.2908 48.7826 -30.2908H43.8707C44.8696 -25.5138 44.8696 -19.4069 44.8696 -8.40011C44.8696 -7.31078 44.8696 -6.26932 44.8685 -5.27258H48.7826C59.0286 -5.27258 61.7262 -5.21869 63.6554 -4.96499C79.8096 -2.84022 92.5214 9.85879 94.6483 25.9966C94.9023 27.9239 94.9562 30.6189 94.9562 40.8545C94.9562 51.0902 94.9023 53.7852 94.6483 55.7124C92.5214 71.8503 79.8096 84.5493 63.6554 86.6741C61.7262 86.9278 59.0286 86.9817 48.7826 86.9817H42.5218C32.2758 86.9817 29.5781 86.9278 27.6489 86.6741C11.4948 84.5493 -1.21736 71.8503 -3.34398 55.7124C-3.57728 53.9414 -3.64184 51.5222 -3.65073 43.1992C-4.64876 43.2 -5.69156 43.2 -6.78227 43.2H-8.34762C-18.2011 43.2 -24.1316 43.2 -28.6953 42.4862Z" fill="white"/>
<path fill-rule="evenodd" clip-rule="evenodd" d="M-58.5852 -32.0009C-60 -26.9428 -60 -20.762 -60 -8.40014C-60 3.96175 -60 10.1426 -58.5852 15.2008C-54.9768 28.1007 -44.8859 38.1816 -31.9727 41.7865C-30.9414 42.0743 -29.8636 42.3033 -28.6962 42.4859C-28.6965 41.9582 -28.6965 41.4147 -28.6965 40.8542C-28.6965 31.414 -28.6965 26.6938 -28.1742 22.7309C-24.5681 -4.63364 -3.01317 -26.1665 24.379 -29.7694C28.3458 -30.2911 33.0706 -30.2911 42.5206 -30.2911H43.8701C43.7473 -30.8788 43.6093 -31.4467 43.4543 -32.0009C39.8459 -44.9012 29.7551 -54.9818 16.8418 -58.5866C11.7785 -60 5.59146 -60 -6.7829 -60H-8.34824C-20.7223 -60 -26.9096 -60 -31.9727 -58.5866C-44.8859 -54.9818 -54.9768 -44.9012 -58.5852 -32.0009ZM44.8681 -5.2729H42.5206C32.2746 -5.2729 29.5769 -5.21901 27.6477 -4.96531C11.4936 -2.84054 -1.21827 9.85847 -3.34518 25.9966C-3.59913 27.9236 -3.65308 30.6188 -3.65308 40.8542C-3.65308 41.6841 -3.65279 42.4644 -3.65193 43.1989C6.67329 43.1888 12.2247 43.0753 16.8418 41.7865C29.7551 38.1816 39.8459 28.1007 43.4543 15.2008C44.7445 10.5883 44.8581 5.0422 44.8681 -5.2729Z" fill="white"/>
</g>
</svg>
